<svg xmlns="http://www.w3.org/2000/svg" xmlns:xlink="http://www.w3.org/1999/xlink" contentStyleType="text/css" height="582px" preserveAspectRatio="none" style="width:1564px;height:582px;background:#FFFFFF;" version="1.1" viewBox="0 0 1564 582" width="1564px" zoomAndPan="magnify"><defs><linearGradient id="g18vqq2v9260lc0" x1="0%" x2="100%" y1="0%" y2="100%"><stop offset="0%" stop-color="#ADFF2F"/><stop offset="100%" stop-color="#FAFAD2"/></linearGradient></defs><g><!--cluster raylib--><g id="cluster_raylib"><path d="M49.0953,27.1658 C55.666,15.7774 63.6796,14.2744 71.7859,25.6342 C76.148,14.292 86.2416,12.8836 92.645,23.7138 C101.1049,9.9392 111.4187,12.9751 118.9108,24.7103 C123.7979,13.933 132.3614,12.1291 139.8047,22.1411 C145.4746,12.3578 156.726,9.9052 162.9245,21.5713 C166.5236,10.1553 175.3019,7.6209 183.3424,17.2653 C191.2218,6.542 202.7623,6 208.9693,19.0668 C216.4752,11.1796 223.4382,9.3349 229.364,20.7374 C237.7232,7.9709 247.9506,7.707 255.8595,21.1918 C260.5636,12.7109 269.1944,11.9661 274.7021,20.2909 C283.6935,10.5115 293.308,10.0747 300.0692,22.8042 C308.7937,14.3228 315.9668,14.8379 321.7588,26.0362 C329.9993,15.2978 337.0873,15.9426 343.8102,27.5349 C354.9503,17.3548 366.9075,15.4297 373,32.8695 C375.0062,31.8954 375.8671,32.7276 376.2136,34.6874 C391.751,41.1296 392.4045,49.4862 381.4903,61.1941 C394.9138,66.2267 396.2741,76.0206 385.7093,85.2587 C398.9009,97.1819 395.8011,106.1917 380.4104,112.5692 C390.793,130.3033 385.2708,138.5213 366,141.4695 C366.7925,141.9309 366.9371,142.5119 366.2577,143.1934 C361.6453,153.8181 352.3821,154.6408 345.5069,145.5784 C337.6633,154.9399 331.0142,156.9027 323.5743,145.1588 C318.0031,159.3164 307.0299,157.633 298.8688,147.8291 C291.5633,158.7669 280.6983,157.6077 274.9279,146.1855 C270.0577,156.0384 262.3599,158.0477 254.7355,149.1517 C248.3217,160.5956 239.5607,162.2546 230.7418,151.7851 C224.8014,161.881 214.9385,162.1474 208.8023,151.9971 C201.4424,162.0409 193.5195,161.4574 186.1637,151.9925 C178.063,163.4164 167.7523,163.4613 161.4668,150.178 C153.1365,162.0329 141.9578,157.8833 137.8446,145.9843 C133.4874,157.5629 124.631,157.795 117.7346,148.4214 C109.6941,159.2484 99.5301,157.8343 93.1406,146.5823 C86.7684,155.9407 76.3583,155.6541 72.3049,144.2548 C58.4282,157.4532 44.2689,150.5684 39,134.4695 C41.391,135.0307 42.2963,136.6877 40.4887,138.7195 C28.7788,133.6634 25.1912,121.1688 36.2566,112.4444 C20.2321,109.2865 17.9089,95.1491 28.7034,84.6921 C18.8637,73.4687 22.8507,64.2264 36.1706,60.0096 C22.9455,45.8564 26.6455,30.6426 46,25.8695 C47.7491,24.7101 48.6649,25.1765 49.0953,27.1658 " fill="url(#g18vqq2v9260lc0)" style="stroke:#181818;stroke-width:1.0;"/><text fill="#000000" font-family="sans-serif" font-size="14" font-weight="bold" lengthAdjust="spacing" textLength="43" x="184.5" y="43.8646">raylib</text></g><!--cluster engine--><g id="cluster_engine"><rect fill="none" height="280.52" rx="2.5" ry="2.5" style="stroke:#181818;stroke-width:1.0;" width="1551" x="7" y="173.4695"/><text fill="#000000" font-family="sans-serif" font-size="14" font-weight="bold" lengthAdjust="spacing" textLength="54" x="755.5" y="188.4646">engine</text></g><!--cluster assets--><g id="cluster_assets"><path d="M33.5,216.4695 L86.5,216.4695 A3.75,3.75 0 0 1 89,218.9695 L96,238.7663 L889.5,238.7663 A2.5,2.5 0 0 1 892,241.2663 L892,427.0395 A2.5,2.5 0 0 1 889.5,429.5395 L33.5,429.5395 A2.5,2.5 0 0 1 31,427.0395 L31,218.9695 A2.5,2.5 0 0 1 33.5,216.4695 " fill="none" style="stroke:#000000;stroke-width:1.5;"/><line style="stroke:#000000;stroke-width:1.5;" x1="31" x2="96" y1="238.7663" y2="238.7663"/><text fill="#000000" font-family="sans-serif" font-size="14" font-weight="bold" lengthAdjust="spacing" textLength="52" x="35" y="231.4646">assets</text></g><!--cluster game--><g id="cluster_game"><rect fill="none" height="99" rx="2.5" ry="2.5" style="stroke:#181818;stroke-width:1.0;" width="106" x="1297" y="477.9895"/><text fill="#000000" font-family="sans-serif" font-size="14" font-weight="bold" lengthAdjust="spacing" textLength="43" x="1328.5" y="492.9846">game</text></g><!--class Sound--><g id="elem_Sound"><rect codeLine="2" fill="#F1F1F1" height="48" id="Sound" rx="2.5" ry="2.5" style="stroke:#181818;stroke-width:0.5;" width="77" x="46.5" y="69.1695"/><ellipse cx="61.5" cy="85.1695" fill="#F1F1F1" rx="11" ry="11" style="stroke:#181818;stroke-width:1.0;"/><path d="M60.9844,85.732 Q59.125,85.0288 58.4688,84.2632 Q57.8281,83.482 57.8281,82.1695 Q57.8281,80.482 58.9063,79.5132 Q59.9844,78.5445 61.8594,78.5445 Q62.7188,78.5445 63.5625,78.7476 Q64.4219,78.9351 65.2656,79.3257 L65.2656,81.7163 Q64.4844,81.1538 63.6563,80.8726 Q62.8438,80.5757 62.0469,80.5757 Q61.1719,80.5757 60.6875,80.9351 Q60.2188,81.2945 60.2188,81.9507 Q60.2188,82.4663 60.5625,82.8101 Q60.9063,83.1382 62,83.5445 L63.0625,83.9507 Q64.5469,84.4976 65.25,85.4038 Q65.9688,86.3101 65.9688,87.6851 Q65.9688,89.5601 64.8594,90.482 Q63.75,91.4038 61.5,91.4038 Q60.5781,91.4038 59.6563,91.1851 Q58.7344,90.9663 57.875,90.5445 L57.875,88.0132 Q58.8438,88.7007 59.7656,89.0445 Q60.6875,89.3882 61.5781,89.3882 Q62.4844,89.3882 62.9844,88.982 Q63.4844,88.5601 63.4844,87.8257 Q63.4844,87.2632 63.1406,86.857 Q62.8125,86.4351 62.1875,86.1851 L60.9844,85.732 Z " fill="#000000"/><text fill="#000000" font-family="sans-serif" font-size="14" lengthAdjust="spacing" textLength="45" x="75.5" y="90.0161">Sound</text><line style="stroke:#181818;stroke-width:0.5;" x1="47.5" x2="122.5" y1="101.1695" y2="101.1695"/><line style="stroke:#181818;stroke-width:0.5;" x1="47.5" x2="122.5" y1="109.1695" y2="109.1695"/></g><!--class Texture--><g id="elem_Texture"><rect codeLine="3" fill="#F1F1F1" height="48" id="Texture" rx="2.5" ry="2.5" style="stroke:#181818;stroke-width:0.5;" width="85" x="158.5" y="69.1695"/><ellipse cx="173.5" cy="85.1695" fill="#F1F1F1" rx="11" ry="11" style="stroke:#181818;stroke-width:1.0;"/><path d="M172.9844,85.732 Q171.125,85.0288 170.4688,84.2632 Q169.8281,83.482 169.8281,82.1695 Q169.8281,80.482 170.9063,79.5132 Q171.9844,78.5445 173.8594,78.5445 Q174.7188,78.5445 175.5625,78.7476 Q176.4219,78.9351 177.2656,79.3257 L177.2656,81.7163 Q176.4844,81.1538 175.6563,80.8726 Q174.8438,80.5757 174.0469,80.5757 Q173.1719,80.5757 172.6875,80.9351 Q172.2188,81.2945 172.2188,81.9507 Q172.2188,82.4663 172.5625,82.8101 Q172.9063,83.1382 174,83.5445 L175.0625,83.9507 Q176.5469,84.4976 177.25,85.4038 Q177.9688,86.3101 177.9688,87.6851 Q177.9688,89.5601 176.8594,90.482 Q175.75,91.4038 173.5,91.4038 Q172.5781,91.4038 171.6563,91.1851 Q170.7344,90.9663 169.875,90.5445 L169.875,88.0132 Q170.8438,88.7007 171.7656,89.0445 Q172.6875,89.3882 173.5781,89.3882 Q174.4844,89.3882 174.9844,88.982 Q175.4844,88.5601 175.4844,87.8257 Q175.4844,87.2632 175.1406,86.857 Q174.8125,86.4351 174.1875,86.1851 L172.9844,85.732 Z " fill="#000000"/><text fill="#000000" font-family="sans-serif" font-size="14" lengthAdjust="spacing" textLength="53" x="187.5" y="90.0161">Texture</text><line style="stroke:#181818;stroke-width:0.5;" x1="159.5" x2="242.5" y1="101.1695" y2="101.1695"/><line style="stroke:#181818;stroke-width:0.5;" x1="159.5" x2="242.5" y1="109.1695" y2="109.1695"/></g><!--class Vector2--><g id="elem_Vector2"><rect codeLine="4" fill="#F1F1F1" height="80.5938" id="Vector2" rx="2.5" ry="2.5" style="stroke:#181818;stroke-width:0.5;" width="86" x="279" y="52.8695"/><ellipse cx="294" cy="68.8695" fill="#F1F1F1" rx="11" ry="11" style="stroke:#181818;stroke-width:1.0;"/><path d="M293.4844,69.432 Q291.625,68.7288 290.9688,67.9632 Q290.3281,67.182 290.3281,65.8695 Q290.3281,64.182 291.4063,63.2132 Q292.4844,62.2445 294.3594,62.2445 Q295.2188,62.2445 296.0625,62.4476 Q296.9219,62.6351 297.7656,63.0257 L297.7656,65.4163 Q296.9844,64.8538 296.1563,64.5726 Q295.3438,64.2757 294.5469,64.2757 Q293.6719,64.2757 293.1875,64.6351 Q292.7188,64.9945 292.7188,65.6507 Q292.7188,66.1663 293.0625,66.5101 Q293.4063,66.8382 294.5,67.2445 L295.5625,67.6507 Q297.0469,68.1976 297.75,69.1038 Q298.4688,70.0101 298.4688,71.3851 Q298.4688,73.2601 297.3594,74.182 Q296.25,75.1038 294,75.1038 Q293.0781,75.1038 292.1563,74.8851 Q291.2344,74.6663 290.375,74.2445 L290.375,71.7132 Q291.3438,72.4007 292.2656,72.7445 Q293.1875,73.0882 294.0781,73.0882 Q294.9844,73.0882 295.4844,72.682 Q295.9844,72.2601 295.9844,71.5257 Q295.9844,70.9632 295.6406,70.557 Q295.3125,70.1351 294.6875,69.8851 L293.4844,69.432 Z " fill="#000000"/><text fill="#000000" font-family="sans-serif" font-size="14" lengthAdjust="spacing" textLength="54" x="308" y="73.7161">Vector2</text><line style="stroke:#181818;stroke-width:0.5;" x1="280" x2="364" y1="84.8695" y2="84.8695"/><ellipse cx="290" cy="98.5179" fill="none" rx="3" ry="3" style="stroke:#038048;stroke-width:1.0;"/><text fill="#000000" font-family="sans-serif" font-size="14" lengthAdjust="spacing" textLength="40" x="299" y="101.8646">float x</text><ellipse cx="290" cy="114.8148" fill="none" rx="3" ry="3" style="stroke:#038048;stroke-width:1.0;"/><text fill="#000000" font-family="sans-serif" font-size="14" lengthAdjust="spacing" textLength="40" x="299" y="118.1615">float y</text><line style="stroke:#181818;stroke-width:0.5;" x1="280" x2="364" y1="125.4632" y2="125.4632"/></g><!--class Result--><g id="elem_Result"><rect codeLine="30" fill="#F1F1F1" height="80.5938" id="Result" rx="2.5" ry="2.5" style="stroke:#181818;stroke-width:0.5;" width="213" x="910.5" y="292.2095"/><ellipse cx="990.75" cy="308.2095" fill="#EB937F" rx="11" ry="11" style="stroke:#181818;stroke-width:1.0;"/><path d="M994.8594,314.2095 L987.1406,314.2095 L987.1406,301.8188 L994.8594,301.8188 L994.8594,303.9751 L989.5938,303.9751 L989.5938,306.647 L994.3594,306.647 L994.3594,308.8032 L989.5938,308.8032 L989.5938,312.0532 L994.8594,312.0532 L994.8594,314.2095 Z " fill="#000000"/><text fill="#000000" font-family="sans-serif" font-size="14" lengthAdjust="spacing" textLength="44" x="1011.25" y="313.0561">Result</text><line style="stroke:#181818;stroke-width:0.5;" x1="911.5" x2="1122.5" y1="324.2095" y2="324.2095"/><text fill="#000000" font-family="sans-serif" font-size="14" lengthAdjust="spacing" textLength="110" x="916.5" y="341.2046">kSucess_Result</text><text fill="#000000" font-family="sans-serif" font-size="14" lengthAdjust="spacing" textLength="201" x="916.5" y="357.5015">kResourceNotLoaded_Result</text><line style="stroke:#181818;stroke-width:0.5;" x1="911.5" x2="1122.5" y1="364.8032" y2="364.8032"/></g><!--class Engine--><g id="elem_Engine"><rect codeLine="35" fill="#F1F1F1" height="210.9688" id="Engine" rx="2.5" ry="2.5" style="stroke:#181818;stroke-width:0.5;" width="384" x="1158" y="227.0195"/><ellipse cx="1321.75" cy="243.0195" fill="#ADD1B2" rx="11" ry="11" style="stroke:#181818;stroke-width:1.0;"/><path d="M1324.7188,248.6601 Q1324.1406,248.957 1323.5,249.0976 Q1322.8594,249.2538 1322.1563,249.2538 Q1319.6563,249.2538 1318.3281,247.6132 Q1317.0156,245.957 1317.0156,242.832 Q1317.0156,239.707 1318.3281,238.0507 Q1319.6563,236.3945 1322.1563,236.3945 Q1322.8594,236.3945 1323.5,236.5507 Q1324.1563,236.707 1324.7188,237.0038 L1324.7188,239.7226 Q1324.0938,239.1445 1323.5,238.8788 Q1322.9063,238.5976 1322.2813,238.5976 Q1320.9375,238.5976 1320.25,239.6757 Q1319.5625,240.7382 1319.5625,242.832 Q1319.5625,244.9257 1320.25,246.0038 Q1320.9375,247.0663 1322.2813,247.0663 Q1322.9063,247.0663 1323.5,246.8007 Q1324.0938,246.5195 1324.7188,245.9413 L1324.7188,248.6601 Z " fill="#000000"/><text fill="#000000" font-family="sans-serif" font-size="14" lengthAdjust="spacing" textLength="48" x="1342.25" y="247.8661">Engine</text><line style="stroke:#181818;stroke-width:0.5;" x1="1159" x2="1541" y1="259.0195" y2="259.0195"/><line style="stroke:#181818;stroke-width:0.5;" x1="1159" x2="1541" y1="267.0195" y2="267.0195"/><rect fill="#F24D5C" height="6" style="stroke:#C82930;stroke-width:1.0;" width="6" x="1166" y="277.6679"/><text fill="#000000" font-family="sans-serif" font-size="14" lengthAdjust="spacing" textLength="101" x="1178" y="284.0146">processInput()</text><rect fill="#F24D5C" height="6" style="stroke:#C82930;stroke-width:1.0;" width="6" x="1166" y="293.9648"/><text fill="#000000" font-family="sans-serif" font-size="14" lengthAdjust="spacing" textLength="156" x="1178" y="300.3115">update(float deltatime)</text><rect fill="#F24D5C" height="6" style="stroke:#C82930;stroke-width:1.0;" width="6" x="1166" y="310.2617"/><text fill="#000000" font-family="sans-serif" font-size="14" lengthAdjust="spacing" textLength="56" x="1178" y="316.6083">render()</text><polygon fill="#FFFF44" points="1169,324.5585,1173,328.5585,1169,332.5585,1165,328.5585" style="stroke:#B38D22;stroke-width:1.0;"/><text fill="#000000" font-family="sans-serif" font-size="14" lengthAdjust="spacing" textLength="96" x="1178" y="332.9052">Result onInit()</text><polygon fill="#FFFF44" points="1169,340.8554,1173,344.8554,1169,348.8554,1165,344.8554" style="stroke:#B38D22;stroke-width:1.0;"/><text fill="#000000" font-family="sans-serif" font-size="14" lengthAdjust="spacing" textLength="151" x="1178" y="349.2021">void onProcessInput()</text><polygon fill="#FFFF44" points="1169,357.1523,1173,361.1523,1169,365.1523,1165,361.1523" style="stroke:#B38D22;stroke-width:1.0;"/><text fill="#000000" font-family="sans-serif" font-size="14" lengthAdjust="spacing" textLength="207" x="1178" y="365.499">void onUpdate(float deltatime)</text><polygon fill="#FFFF44" points="1169,373.4492,1173,377.4492,1169,381.4492,1165,377.4492" style="stroke:#B38D22;stroke-width:1.0;"/><text fill="#000000" font-family="sans-serif" font-size="14" lengthAdjust="spacing" textLength="111" x="1178" y="381.7958">void onRender()</text><ellipse cx="1169" cy="394.746" fill="#84BE84" rx="3" ry="3" style="stroke:#038048;stroke-width:1.0;"/><text fill="#000000" font-family="sans-serif" font-size="14" lengthAdjust="spacing" textLength="342" x="1178" y="398.0927">assets::Sound makeSoundFromPath(path, result)</text><ellipse cx="1169" cy="411.0429" fill="#84BE84" rx="3" ry="3" style="stroke:#038048;stroke-width:1.0;"/><text fill="#000000" font-family="sans-serif" font-size="14" lengthAdjust="spacing" textLength="358" x="1178" y="414.3896">assets::Texture makeTextureFromPath(path, result)</text><ellipse cx="1169" cy="427.3398" fill="#84BE84" rx="3" ry="3" style="stroke:#038048;stroke-width:1.0;"/><text fill="#000000" font-family="sans-serif" font-size="14" lengthAdjust="spacing" textLength="81" x="1178" y="430.6865">Result run()</text></g><!--class Sound--><g id="elem_Sound"><rect codeLine="12" fill="#F1F1F1" height="48" id="Sound" rx="2.5" ry="2.5" style="stroke:#181818;stroke-width:0.5;" width="77" x="46.5" y="308.5095"/><ellipse cx="61.5" cy="324.5095" fill="#ADD1B2" rx="11" ry="11" style="stroke:#181818;stroke-width:1.0;"/><path d="M64.4688,330.1501 Q63.8906,330.447 63.25,330.5876 Q62.6094,330.7438 61.9063,330.7438 Q59.4063,330.7438 58.0781,329.1032 Q56.7656,327.447 56.7656,324.322 Q56.7656,321.197 58.0781,319.5407 Q59.4063,317.8845 61.9063,317.8845 Q62.6094,317.8845 63.25,318.0407 Q63.9063,318.197 64.4688,318.4938 L64.4688,321.2126 Q63.8438,320.6345 63.25,320.3688 Q62.6563,320.0876 62.0313,320.0876 Q60.6875,320.0876 60,321.1657 Q59.3125,322.2282 59.3125,324.322 Q59.3125,326.4157 60,327.4938 Q60.6875,328.5563 62.0313,328.5563 Q62.6563,328.5563 63.25,328.2907 Q63.8438,328.0095 64.4688,327.4313 L64.4688,330.1501 Z " fill="#000000"/><text fill="#000000" font-family="sans-serif" font-size="14" lengthAdjust="spacing" textLength="45" x="75.5" y="329.3561">Sound</text><line style="stroke:#181818;stroke-width:0.5;" x1="47.5" x2="122.5" y1="340.5095" y2="340.5095"/><line style="stroke:#181818;stroke-width:0.5;" x1="47.5" x2="122.5" y1="348.5095" y2="348.5095"/></g><!--class Texture--><g id="elem_Texture"><rect codeLine="13" fill="#F1F1F1" height="48" id="Texture" rx="2.5" ry="2.5" style="stroke:#181818;stroke-width:0.5;" width="85" x="158.5" y="308.5095"/><ellipse cx="173.5" cy="324.5095" fill="#ADD1B2" rx="11" ry="11" style="stroke:#181818;stroke-width:1.0;"/><path d="M176.4688,330.1501 Q175.8906,330.447 175.25,330.5876 Q174.6094,330.7438 173.9063,330.7438 Q171.4063,330.7438 170.0781,329.1032 Q168.7656,327.447 168.7656,324.322 Q168.7656,321.197 170.0781,319.5407 Q171.4063,317.8845 173.9063,317.8845 Q174.6094,317.8845 175.25,318.0407 Q175.9063,318.197 176.4688,318.4938 L176.4688,321.2126 Q175.8438,320.6345 175.25,320.3688 Q174.6563,320.0876 174.0313,320.0876 Q172.6875,320.0876 172,321.1657 Q171.3125,322.2282 171.3125,324.322 Q171.3125,326.4157 172,327.4938 Q172.6875,328.5563 174.0313,328.5563 Q174.6563,328.5563 175.25,328.2907 Q175.8438,328.0095 176.4688,327.4313 L176.4688,330.1501 Z " fill="#000000"/><text fill="#000000" font-family="sans-serif" font-size="14" lengthAdjust="spacing" textLength="53" x="187.5" y="329.3561">Texture</text><line style="stroke:#181818;stroke-width:0.5;" x1="159.5" x2="242.5" y1="340.5095" y2="340.5095"/><line style="stroke:#181818;stroke-width:0.5;" x1="159.5" x2="242.5" y1="348.5095" y2="348.5095"/></g><!--class TextureAtlasInfo--><g id="elem_TextureAtlasInfo"><rect codeLine="14" fill="#F1F1F1" height="96.8906" id="TextureAtlasInfo" rx="2.5" ry="2.5" style="stroke:#181818;stroke-width:0.5;" width="143" x="278.5" y="284.0595"/><ellipse cx="293.5" cy="300.0595" fill="#F1F1F1" rx="11" ry="11" style="stroke:#181818;stroke-width:1.0;"/><path d="M292.9844,300.622 Q291.125,299.9188 290.4688,299.1532 Q289.8281,298.372 289.8281,297.0595 Q289.8281,295.372 290.9063,294.4032 Q291.9844,293.4345 293.8594,293.4345 Q294.7188,293.4345 295.5625,293.6376 Q296.4219,293.8251 297.2656,294.2157 L297.2656,296.6063 Q296.4844,296.0438 295.6563,295.7626 Q294.8438,295.4657 294.0469,295.4657 Q293.1719,295.4657 292.6875,295.8251 Q292.2188,296.1845 292.2188,296.8407 Q292.2188,297.3563 292.5625,297.7001 Q292.9063,298.0282 294,298.4345 L295.0625,298.8407 Q296.5469,299.3876 297.25,300.2938 Q297.9688,301.2001 297.9688,302.5751 Q297.9688,304.4501 296.8594,305.372 Q295.75,306.2938 293.5,306.2938 Q292.5781,306.2938 291.6563,306.0751 Q290.7344,305.8563 289.875,305.4345 L289.875,302.9032 Q290.8438,303.5907 291.7656,303.9345 Q292.6875,304.2782 293.5781,304.2782 Q294.4844,304.2782 294.9844,303.872 Q295.4844,303.4501 295.4844,302.7157 Q295.4844,302.1532 295.1406,301.747 Q294.8125,301.3251 294.1875,301.0751 L292.9844,300.622 Z " fill="#000000"/><text fill="#000000" font-family="sans-serif" font-size="14" lengthAdjust="spacing" textLength="111" x="307.5" y="304.9061">TextureAtlasInfo</text><line style="stroke:#181818;stroke-width:0.5;" x1="279.5" x2="420.5" y1="316.0595" y2="316.0595"/><ellipse cx="289.5" cy="329.7079" fill="none" rx="3" ry="3" style="stroke:#038048;stroke-width:1.0;"/><text fill="#000000" font-family="sans-serif" font-size="14" lengthAdjust="spacing" textLength="110" x="298.5" y="333.0546">unsigned sizeW</text><ellipse cx="289.5" cy="346.0048" fill="none" rx="3" ry="3" style="stroke:#038048;stroke-width:1.0;"/><text fill="#000000" font-family="sans-serif" font-size="14" lengthAdjust="spacing" textLength="107" x="298.5" y="349.3515">unsigned sizeH</text><ellipse cx="289.5" cy="362.3017" fill="none" rx="3" ry="3" style="stroke:#038048;stroke-width:1.0;"/><text fill="#000000" font-family="sans-serif" font-size="14" lengthAdjust="spacing" textLength="69" x="298.5" y="365.6483">float scale</text><line style="stroke:#181818;stroke-width:0.5;" x1="279.5" x2="420.5" y1="372.9501" y2="372.9501"/></g><!--class TextureAtlas--><g id="elem_TextureAtlas"><rect codeLine="19" fill="#F1F1F1" height="162.0781" id="TextureAtlas" rx="2.5" ry="2.5" style="stroke:#181818;stroke-width:0.5;" width="420" x="456" y="251.4695"/><ellipse cx="618.75" cy="267.4695" fill="#F1F1F1" rx="11" ry="11" style="stroke:#181818;stroke-width:1.0;"/><path d="M618.2344,268.032 Q616.375,267.3288 615.7188,266.5632 Q615.0781,265.782 615.0781,264.4695 Q615.0781,262.782 616.1563,261.8132 Q617.2344,260.8445 619.1094,260.8445 Q619.9688,260.8445 620.8125,261.0476 Q621.6719,261.2351 622.5156,261.6257 L622.5156,264.0163 Q621.7344,263.4538 620.9063,263.1726 Q620.0938,262.8757 619.2969,262.8757 Q618.4219,262.8757 617.9375,263.2351 Q617.4688,263.5945 617.4688,264.2507 Q617.4688,264.7663 617.8125,265.1101 Q618.1563,265.4382 619.25,265.8445 L620.3125,266.2507 Q621.7969,266.7976 622.5,267.7038 Q623.2188,268.6101 623.2188,269.9851 Q623.2188,271.8601 622.1094,272.782 Q621,273.7038 618.75,273.7038 Q617.8281,273.7038 616.9063,273.4851 Q615.9844,273.2663 615.125,272.8445 L615.125,270.3132 Q616.0938,271.0007 617.0156,271.3445 Q617.9375,271.6882 618.8281,271.6882 Q619.7344,271.6882 620.2344,271.282 Q620.7344,270.8601 620.7344,270.1257 Q620.7344,269.5632 620.3906,269.157 Q620.0625,268.7351 619.4375,268.4851 L618.2344,268.032 Z " fill="#000000"/><text fill="#000000" font-family="sans-serif" font-size="14" lengthAdjust="spacing" textLength="86" x="639.25" y="272.3161">TextureAtlas</text><line style="stroke:#181818;stroke-width:0.5;" x1="457" x2="875" y1="283.4695" y2="283.4695"/><line style="stroke:#181818;stroke-width:0.5;" x1="457" x2="875" y1="291.4695" y2="291.4695"/><rect fill="#F24D5C" height="6" style="stroke:#C82930;stroke-width:1.0;" width="6" x="464" y="302.1179"/><text fill="#000000" font-family="sans-serif" font-size="14" lengthAdjust="spacing" textLength="102" x="476" y="308.4646">void initRects()</text><rect fill="#F24D5C" height="6" style="stroke:#C82930;stroke-width:1.0;" width="6" x="464" y="318.4148"/><text fill="#000000" font-family="sans-serif" font-size="14" lengthAdjust="spacing" textLength="87" x="476" y="324.7615">void initInfo()</text><ellipse cx="467" cy="337.7117" fill="#84BE84" rx="3" ry="3" style="stroke:#038048;stroke-width:1.0;"/><text fill="#000000" font-family="sans-serif" font-size="14" lengthAdjust="spacing" textLength="170" x="476" y="341.0583">void setScale(float scale)</text><ellipse cx="467" cy="354.0085" fill="#84BE84" rx="3" ry="3" style="stroke:#038048;stroke-width:1.0;"/><text fill="#000000" font-family="sans-serif" font-size="14" lengthAdjust="spacing" textLength="394" x="476" y="357.3552">void makeFromTexture(Texture tex, TextureAtlasInfo info)</text><ellipse cx="467" cy="370.3054" fill="#84BE84" rx="3" ry="3" style="stroke:#038048;stroke-width:1.0;"/><text fill="#000000" font-family="sans-serif" font-size="14" lengthAdjust="spacing" textLength="116" x="476" y="373.6521">Texture texture()</text><ellipse cx="467" cy="386.6023" fill="#84BE84" rx="3" ry="3" style="stroke:#038048;stroke-width:1.0;"/><text fill="#000000" font-family="sans-serif" font-size="14" lengthAdjust="spacing" textLength="150" x="476" y="389.949">TextureAtlasInfo info()</text><ellipse cx="467" cy="402.8992" fill="#84BE84" rx="3" ry="3" style="stroke:#038048;stroke-width:1.0;"/><text fill="#000000" font-family="sans-serif" font-size="14" lengthAdjust="spacing" textLength="199" x="476" y="406.2458">raylib::Vector2 rectOrigin(idx)</text></g><!--class Game--><g id="elem_Game"><rect codeLine="50" fill="#F1F1F1" height="48" id="Game" rx="2.5" ry="2.5" style="stroke:#181818;stroke-width:0.5;" width="73" x="1313.5" y="512.9895"/><ellipse cx="1328.5" cy="528.9895" fill="#ADD1B2" rx="11" ry="11" style="stroke:#181818;stroke-width:1.0;"/><path d="M1331.4688,534.6301 Q1330.8906,534.927 1330.25,535.0676 Q1329.6094,535.2238 1328.9063,535.2238 Q1326.4063,535.2238 1325.0781,533.5832 Q1323.7656,531.927 1323.7656,528.802 Q1323.7656,525.677 1325.0781,524.0207 Q1326.4063,522.3645 1328.9063,522.3645 Q1329.6094,522.3645 1330.25,522.5207 Q1330.9063,522.677 1331.4688,522.9738 L1331.4688,525.6926 Q1330.8438,525.1145 1330.25,524.8488 Q1329.6563,524.5676 1329.0313,524.5676 Q1327.6875,524.5676 1327,525.6457 Q1326.3125,526.7082 1326.3125,528.802 Q1326.3125,530.8957 1327,531.9738 Q1327.6875,533.0363 1329.0313,533.0363 Q1329.6563,533.0363 1330.25,532.7707 Q1330.8438,532.4895 1331.4688,531.9113 L1331.4688,534.6301 Z " fill="#000000"/><text fill="#000000" font-family="sans-serif" font-size="14" lengthAdjust="spacing" textLength="41" x="1342.5" y="533.8361">Game</text><line style="stroke:#181818;stroke-width:0.5;" x1="1314.5" x2="1385.5" y1="544.9895" y2="544.9895"/><line style="stroke:#181818;stroke-width:0.5;" x1="1314.5" x2="1385.5" y1="552.9895" y2="552.9895"/></g><!--reverse link Sound to Sound--><g id="link_Sound_Sound"><path d="M85,135.3595 C85,180.7295 85,262.7695 85,308.2195 " fill="none" id="Sound-backto-Sound" style="stroke:#181818;stroke-width:1.0;"/><polygon fill="none" points="85,117.3595,79,135.3595,91,135.3595,85,117.3595" style="stroke:#181818;stroke-width:1.0;"/></g><!--reverse link Texture to Texture--><g id="link_Texture_Texture"><path d="M201,135.3595 C201,180.7295 201,262.7695 201,308.2195 " fill="none" id="Texture-backto-Texture" style="stroke:#181818;stroke-width:1.0;"/><polygon fill="none" points="201,117.3595,195,135.3595,207,135.3595,201,117.3595" style="stroke:#181818;stroke-width:1.0;"/></g><!--reverse link Engine to Game--><g id="link_Engine_Game"><path d="M1350,456.3095 C1350,484.2895 1350,493.9095 1350,512.5995 " fill="none" id="Engine-backto-Game" style="stroke:#181818;stroke-width:1.0;"/><polygon fill="none" points="1350,438.3095,1344,456.3095,1356,456.3095,1350,438.3095" style="stroke:#181818;stroke-width:1.0;"/></g><!--SRC=[VLDDJ-Cm4BtdLup49QWK98uLGa9eAPKGYzfT42VaZOTWrR4ZV-oMHVtlZ6Cx92rmIUmtNs_UZ5jMhLcDODYh57_WxEnIQi_Fp-5WRX3L8qgf_vtSYFh5pRNag9QQHn3U2W3hZAyShBHN7Dws7yWlt3XlS8JTO-MqEUq20IRmB3Lpi1dTNkcsBRP5qIPYg6gXa8WjAPgfMYAH2nco0xCMdKr9AqdNH8SOeE8sjNOyu9ZzCiaTpn7ttOuk78KkrBDE5GDrhwoe5NAmuZy-V0vVzt1ir5PCOeTzMQMlC8M_Md0GIhYWWYqFzms1KezF8ax2h4APSb1onwLXQxmokabrozoxmytHVik2FXy91hvTx9vb73YmHw5dixmHXlu_ZQ19bu9l3djPQ0ze0Nm3IxHUkYZ8UkKhjFOfOXr2H-rDXRVQtMZ6aVT6obAaQV-8czJbc49hTCYoKArtaTaKVCkPosfnb8uvqM0o6beHDD7r81FIQa7QPx1JLAkxlTIzwVVN5NgVvQ3G9AttR1RNDuohEuMPtJ7tKhRqEI9oWSvEI9vF24hdxy9IIyQhK7lq26lMVFO4ewxpOCnFA3xNuwmrPNa7]--></g></svg>