<svg xmlns="http://www.w3.org/2000/svg" xmlns:xlink="http://www.w3.org/1999/xlink" contentStyleType="text/css" height="612px" preserveAspectRatio="none" style="width:1097px;height:612px;background:#FFFFFF;" version="1.1" viewBox="0 0 1097 612" width="1097px" zoomAndPan="magnify"><defs><linearGradient id="g1n3mw4vjmuonq0" x1="0%" x2="100%" y1="0%" y2="100%"><stop offset="0%" stop-color="#ADFF2F"/><stop offset="100%" stop-color="#FAFAD2"/></linearGradient></defs><g><!--cluster raylib--><g id="cluster_raylib"><path d="M18.559,96.7891 C22.4796,88.8851 28.789,89.2903 33.6591,95.7938 C38.593,89.0429 44.6886,88.8329 49.9081,95.4467 C55.5797,88.3675 60.3784,89.4676 65.3749,96.2025 C68.9641,88.92 73.3804,88.9635 78.8733,94.14 C84.4667,86.7116 89.9949,85.3704 96.2747,93.3656 C100.6596,86.0007 106.5246,86.1249 110.6514,93.6155 C114.8549,85.3203 119.6437,84.4492 125.5327,92.0362 C129.0663,85.5813 135.4658,85.3163 139.6539,91.2928 C145.8427,84.6422 151.9443,85.697 155.1451,94.3227 C160.4806,87.6834 166.3584,87.646 170.8701,95.2333 C176.3409,86.2193 183.0563,87.1326 187.8332,95.8954 C191.4551,88.7787 196.9337,87.785 201.5048,94.9892 C207.3435,88.4694 215.0471,89.5607 217.7359,98.3326 C222.061,91.1094 228.0167,92.3793 231.7639,98.9216 C239.7996,103.703 241.2577,111.0684 233.4701,117.3174 C244.4352,122.6904 245.2435,132.6926 234.2512,138.8617 C245.0538,145.015 244.3198,154.831 233.7359,160.4743 C241.714,167.7244 244.3565,174.9364 232.702,181.2075 C228.6489,187.7808 221.6688,188.7735 217.802,181.0138 C213.5662,189.1149 208.6531,189.0696 202.9829,182.4588 C197.9595,190.8908 191.8919,190.0731 186.4477,182.9049 C183.0073,190.3051 177.6344,192.0843 172.0941,184.9834 C167.6963,193.1255 161.676,193.799 155.6869,186.6959 C150.7176,193.6447 146.3244,192.9826 141.9676,186.0889 C137.4184,193.8337 132.1244,194.4627 126.7287,186.9335 C121.9572,195.459 114.8803,194.8184 110.0256,187.0187 C105.8458,193.7958 98.6903,193.0661 95.3052,186.1634 C90.7373,193.1185 84.4898,192.4612 80.7852,185.2769 C75.5349,191.5744 70.0665,191.2433 65.7364,184.2361 C60.2178,192.4781 53.6779,192.3941 49.0151,183.4056 C42.9463,190.3108 37.8293,190.334 33.529,181.6489 C29.9657,187.5279 24.0989,189.3416 20.0062,182.1987 C8.1538,176.2257 6.3689,168.2342 17.1481,159.4214 C7.1851,152.2604 6,145.3351 17.5364,138.5745 C6.9422,133.3168 7.3068,123.3644 17.4409,118.0104 C7.6924,112.111 7.7858,101.6072 18.559,96.7891 " fill="url(#g1n3mw4vjmuonq0)" style="stroke:#181818;stroke-width:1.0;"/><text fill="#000000" font-family="sans-serif" font-size="14" font-weight="bold" lengthAdjust="spacing" textLength="43" x="102.8028" y="114.4751">raylib</text></g><!--cluster engine--><g id="cluster_engine"><rect fill="none" height="599.75" rx="2.5" ry="2.5" style="stroke:#181818;stroke-width:1.0;" width="541" x="262.8028" y="7"/><text fill="#000000" font-family="sans-serif" font-size="14" font-weight="bold" lengthAdjust="spacing" textLength="54" x="506.3028" y="21.9951">engine</text></g><!--cluster assets--><g id="cluster_assets"><path d="M289.3028,294.27 L342.3028,294.27 A3.75,3.75 0 0 1 344.8028,296.77 L351.8028,316.5669 L604.3028,316.5669 A2.5,2.5 0 0 1 606.8028,319.0669 L606.8028,580.25 A2.5,2.5 0 0 1 604.3028,582.75 L289.3028,582.75 A2.5,2.5 0 0 1 286.8028,580.25 L286.8028,296.77 A2.5,2.5 0 0 1 289.3028,294.27 " fill="none" style="stroke:#000000;stroke-width:1.5;"/><line style="stroke:#000000;stroke-width:1.5;" x1="286.8028" x2="351.8028" y1="316.5669" y2="316.5669"/><text fill="#000000" font-family="sans-serif" font-size="14" font-weight="bold" lengthAdjust="spacing" textLength="52" x="290.8028" y="309.2651">assets</text></g><!--cluster game--><g id="cluster_game"><rect fill="none" height="99" rx="2.5" ry="2.5" style="stroke:#181818;stroke-width:1.0;" width="106" x="827.8028" y="294.27"/><text fill="#000000" font-family="sans-serif" font-size="14" font-weight="bold" lengthAdjust="spacing" textLength="43" x="859.3028" y="309.2651">game</text></g><!--class Sound--><g id="elem_Sound"><rect codeLine="2" fill="#F1F1F1" height="48" id="Sound" rx="2.5" ry="2.5" style="stroke:#181818;stroke-width:0.5;" width="77" x="146.3028" y="123.48"/><ellipse cx="161.3028" cy="139.48" fill="#F1F1F1" rx="11" ry="11" style="stroke:#181818;stroke-width:1.0;"/><path d="M160.7872,140.0425 Q158.9278,139.3394 158.2715,138.5738 Q157.6309,137.7925 157.6309,136.48 Q157.6309,134.7925 158.709,133.8238 Q159.7872,132.855 161.6622,132.855 Q162.5215,132.855 163.3653,133.0581 Q164.2247,133.2456 165.0684,133.6363 L165.0684,136.0269 Q164.2872,135.4644 163.459,135.1831 Q162.6465,134.8863 161.8497,134.8863 Q160.9747,134.8863 160.4903,135.2456 Q160.0215,135.605 160.0215,136.2613 Q160.0215,136.7769 160.3653,137.1206 Q160.709,137.4488 161.8028,137.855 L162.8653,138.2613 Q164.3497,138.8081 165.0528,139.7144 Q165.7715,140.6206 165.7715,141.9956 Q165.7715,143.8706 164.6622,144.7925 Q163.5528,145.7144 161.3028,145.7144 Q160.3809,145.7144 159.459,145.4956 Q158.5372,145.2769 157.6778,144.855 L157.6778,142.3238 Q158.6465,143.0113 159.5684,143.355 Q160.4903,143.6988 161.3809,143.6988 Q162.2872,143.6988 162.7872,143.2925 Q163.2872,142.8706 163.2872,142.1363 Q163.2872,141.5738 162.9434,141.1675 Q162.6153,140.7456 161.9903,140.4956 L160.7872,140.0425 Z " fill="#000000"/><text fill="#000000" font-family="sans-serif" font-size="14" lengthAdjust="spacing" textLength="45" x="175.3028" y="144.3267">Sound</text><line style="stroke:#181818;stroke-width:0.5;" x1="147.3028" x2="222.3028" y1="155.48" y2="155.48"/><line style="stroke:#181818;stroke-width:0.5;" x1="147.3028" x2="222.3028" y1="163.48" y2="163.48"/></g><!--class Texture--><g id="elem_Texture"><rect codeLine="3" fill="#F1F1F1" height="48" id="Texture" rx="2.5" ry="2.5" style="stroke:#181818;stroke-width:0.5;" width="85" x="26.3028" y="123.48"/><ellipse cx="41.3028" cy="139.48" fill="#F1F1F1" rx="11" ry="11" style="stroke:#181818;stroke-width:1.0;"/><path d="M40.7872,140.0425 Q38.9278,139.3394 38.2715,138.5738 Q37.6309,137.7925 37.6309,136.48 Q37.6309,134.7925 38.709,133.8238 Q39.7872,132.855 41.6622,132.855 Q42.5215,132.855 43.3653,133.0581 Q44.2247,133.2456 45.0684,133.6363 L45.0684,136.0269 Q44.2872,135.4644 43.459,135.1831 Q42.6465,134.8863 41.8497,134.8863 Q40.9747,134.8863 40.4903,135.2456 Q40.0215,135.605 40.0215,136.2613 Q40.0215,136.7769 40.3653,137.1206 Q40.709,137.4488 41.8028,137.855 L42.8653,138.2613 Q44.3497,138.8081 45.0528,139.7144 Q45.7715,140.6206 45.7715,141.9956 Q45.7715,143.8706 44.6622,144.7925 Q43.5528,145.7144 41.3028,145.7144 Q40.3809,145.7144 39.459,145.4956 Q38.5372,145.2769 37.6778,144.855 L37.6778,142.3238 Q38.6465,143.0113 39.5684,143.355 Q40.4903,143.6988 41.3809,143.6988 Q42.2872,143.6988 42.7872,143.2925 Q43.2872,142.8706 43.2872,142.1363 Q43.2872,141.5738 42.9434,141.1675 Q42.6153,140.7456 41.9903,140.4956 L40.7872,140.0425 Z " fill="#000000"/><text fill="#000000" font-family="sans-serif" font-size="14" lengthAdjust="spacing" textLength="53" x="55.3028" y="144.3267">Texture</text><line style="stroke:#181818;stroke-width:0.5;" x1="27.3028" x2="110.3028" y1="155.48" y2="155.48"/><line style="stroke:#181818;stroke-width:0.5;" x1="27.3028" x2="110.3028" y1="163.48" y2="163.48"/></g><!--class Engine--><g id="elem_Engine"><rect codeLine="23" fill="#F1F1F1" height="210.9688" id="Engine" rx="2.5" ry="2.5" style="stroke:#181818;stroke-width:0.5;" width="384" x="381.8028" y="42"/><ellipse cx="545.5528" cy="58" fill="#ADD1B2" rx="11" ry="11" style="stroke:#181818;stroke-width:1.0;"/><path d="M548.5215,63.6406 Q547.9434,63.9375 547.3028,64.0781 Q546.6622,64.2344 545.959,64.2344 Q543.459,64.2344 542.1309,62.5938 Q540.8184,60.9375 540.8184,57.8125 Q540.8184,54.6875 542.1309,53.0313 Q543.459,51.375 545.959,51.375 Q546.6622,51.375 547.3028,51.5313 Q547.959,51.6875 548.5215,51.9844 L548.5215,54.7031 Q547.8965,54.125 547.3028,53.8594 Q546.709,53.5781 546.084,53.5781 Q544.7403,53.5781 544.0528,54.6563 Q543.3653,55.7188 543.3653,57.8125 Q543.3653,59.9063 544.0528,60.9844 Q544.7403,62.0469 546.084,62.0469 Q546.709,62.0469 547.3028,61.7813 Q547.8965,61.5 548.5215,60.9219 L548.5215,63.6406 Z " fill="#000000"/><text fill="#000000" font-family="sans-serif" font-size="14" lengthAdjust="spacing" textLength="48" x="566.0528" y="62.8467">Engine</text><line style="stroke:#181818;stroke-width:0.5;" x1="382.8028" x2="764.8028" y1="74" y2="74"/><line style="stroke:#181818;stroke-width:0.5;" x1="382.8028" x2="764.8028" y1="82" y2="82"/><rect fill="#F24D5C" height="6" style="stroke:#C82930;stroke-width:1.0;" width="6" x="389.8028" y="92.6484"/><text fill="#000000" font-family="sans-serif" font-size="14" lengthAdjust="spacing" textLength="101" x="401.8028" y="98.9951">processInput()</text><rect fill="#F24D5C" height="6" style="stroke:#C82930;stroke-width:1.0;" width="6" x="389.8028" y="108.9453"/><text fill="#000000" font-family="sans-serif" font-size="14" lengthAdjust="spacing" textLength="156" x="401.8028" y="115.292">update(float deltatime)</text><rect fill="#F24D5C" height="6" style="stroke:#C82930;stroke-width:1.0;" width="6" x="389.8028" y="125.2422"/><text fill="#000000" font-family="sans-serif" font-size="14" lengthAdjust="spacing" textLength="56" x="401.8028" y="131.5889">render()</text><polygon fill="#FFFF44" points="392.8028,139.5391,396.8028,143.5391,392.8028,147.5391,388.8028,143.5391" style="stroke:#B38D22;stroke-width:1.0;"/><text fill="#000000" font-family="sans-serif" font-size="14" lengthAdjust="spacing" textLength="96" x="401.8028" y="147.8857">Result onInit()</text><polygon fill="#FFFF44" points="392.8028,155.8359,396.8028,159.8359,392.8028,163.8359,388.8028,159.8359" style="stroke:#B38D22;stroke-width:1.0;"/><text fill="#000000" font-family="sans-serif" font-size="14" lengthAdjust="spacing" textLength="136" x="401.8028" y="164.1826">void onProcessInit()</text><polygon fill="#FFFF44" points="392.8028,172.1328,396.8028,176.1328,392.8028,180.1328,388.8028,176.1328" style="stroke:#B38D22;stroke-width:1.0;"/><text fill="#000000" font-family="sans-serif" font-size="14" lengthAdjust="spacing" textLength="207" x="401.8028" y="180.4795">void onUpdate(float deltatime)</text><polygon fill="#FFFF44" points="392.8028,188.4297,396.8028,192.4297,392.8028,196.4297,388.8028,192.4297" style="stroke:#B38D22;stroke-width:1.0;"/><text fill="#000000" font-family="sans-serif" font-size="14" lengthAdjust="spacing" textLength="111" x="401.8028" y="196.7764">void onRender()</text><ellipse cx="392.8028" cy="209.7266" fill="#84BE84" rx="3" ry="3" style="stroke:#038048;stroke-width:1.0;"/><text fill="#000000" font-family="sans-serif" font-size="14" lengthAdjust="spacing" textLength="342" x="401.8028" y="213.0732">assets::Sound makeSoundFromPath(path, result)</text><ellipse cx="392.8028" cy="226.0234" fill="#84BE84" rx="3" ry="3" style="stroke:#038048;stroke-width:1.0;"/><text fill="#000000" font-family="sans-serif" font-size="14" lengthAdjust="spacing" textLength="358" x="401.8028" y="229.3701">assets::Texture makeTextureFromPath(path, result)</text><ellipse cx="392.8028" cy="242.3203" fill="#84BE84" rx="3" ry="3" style="stroke:#038048;stroke-width:1.0;"/><text fill="#000000" font-family="sans-serif" font-size="14" lengthAdjust="spacing" textLength="81" x="401.8028" y="245.667">Result run()</text></g><!--class Result--><g id="elem_Result"><rect codeLine="36" fill="#F1F1F1" height="80.5938" id="Result" rx="2.5" ry="2.5" style="stroke:#181818;stroke-width:0.5;" width="162" x="625.8028" y="312.97"/><ellipse cx="680.5528" cy="328.97" fill="#EB937F" rx="11" ry="11" style="stroke:#181818;stroke-width:1.0;"/><path d="M684.6622,334.97 L676.9434,334.97 L676.9434,322.5794 L684.6622,322.5794 L684.6622,324.7356 L679.3965,324.7356 L679.3965,327.4075 L684.1622,327.4075 L684.1622,329.5638 L679.3965,329.5638 L679.3965,332.8138 L684.6622,332.8138 L684.6622,334.97 Z " fill="#000000"/><text fill="#000000" font-family="sans-serif" font-size="14" lengthAdjust="spacing" textLength="44" x="701.0528" y="333.8167">Result</text><line style="stroke:#181818;stroke-width:0.5;" x1="626.8028" x2="786.8028" y1="344.97" y2="344.97"/><text fill="#000000" font-family="sans-serif" font-size="14" lengthAdjust="spacing" textLength="110" x="631.8028" y="361.9651">kSucess_Result</text><text fill="#000000" font-family="sans-serif" font-size="14" lengthAdjust="spacing" textLength="150" x="631.8028" y="378.262">kFileNotFound_Result</text><line style="stroke:#181818;stroke-width:0.5;" x1="626.8028" x2="786.8028" y1="385.5638" y2="385.5638"/></g><!--class Sound--><g id="elem_Sound"><rect codeLine="8" fill="#F1F1F1" height="48" id="Sound" rx="2.5" ry="2.5" style="stroke:#181818;stroke-width:0.5;" width="77" x="514.3028" y="329.27"/><ellipse cx="529.3028" cy="345.27" fill="#ADD1B2" rx="11" ry="11" style="stroke:#181818;stroke-width:1.0;"/><path d="M532.2715,350.9106 Q531.6934,351.2075 531.0528,351.3481 Q530.4122,351.5044 529.709,351.5044 Q527.209,351.5044 525.8809,349.8638 Q524.5684,348.2075 524.5684,345.0825 Q524.5684,341.9575 525.8809,340.3013 Q527.209,338.645 529.709,338.645 Q530.4122,338.645 531.0528,338.8013 Q531.709,338.9575 532.2715,339.2544 L532.2715,341.9731 Q531.6465,341.395 531.0528,341.1294 Q530.459,340.8481 529.834,340.8481 Q528.4903,340.8481 527.8028,341.9263 Q527.1153,342.9888 527.1153,345.0825 Q527.1153,347.1763 527.8028,348.2544 Q528.4903,349.3169 529.834,349.3169 Q530.459,349.3169 531.0528,349.0513 Q531.6465,348.77 532.2715,348.1919 L532.2715,350.9106 Z " fill="#000000"/><text fill="#000000" font-family="sans-serif" font-size="14" lengthAdjust="spacing" textLength="45" x="543.3028" y="350.1167">Sound</text><line style="stroke:#181818;stroke-width:0.5;" x1="515.3028" x2="590.3028" y1="361.27" y2="361.27"/><line style="stroke:#181818;stroke-width:0.5;" x1="515.3028" x2="590.3028" y1="369.27" y2="369.27"/></g><!--class Texture--><g id="elem_Texture"><rect codeLine="9" fill="#F1F1F1" height="48" id="Texture" rx="2.5" ry="2.5" style="stroke:#181818;stroke-width:0.5;" width="85" x="394.3028" y="329.27"/><ellipse cx="409.3028" cy="345.27" fill="#ADD1B2" rx="11" ry="11" style="stroke:#181818;stroke-width:1.0;"/><path d="M412.2715,350.9106 Q411.6934,351.2075 411.0528,351.3481 Q410.4122,351.5044 409.709,351.5044 Q407.209,351.5044 405.8809,349.8638 Q404.5684,348.2075 404.5684,345.0825 Q404.5684,341.9575 405.8809,340.3013 Q407.209,338.645 409.709,338.645 Q410.4122,338.645 411.0528,338.8013 Q411.709,338.9575 412.2715,339.2544 L412.2715,341.9731 Q411.6465,341.395 411.0528,341.1294 Q410.459,340.8481 409.834,340.8481 Q408.4903,340.8481 407.8028,341.9263 Q407.1153,342.9888 407.1153,345.0825 Q407.1153,347.1763 407.8028,348.2544 Q408.4903,349.3169 409.834,349.3169 Q410.459,349.3169 411.0528,349.0513 Q411.6465,348.77 412.2715,348.1919 L412.2715,350.9106 Z " fill="#000000"/><text fill="#000000" font-family="sans-serif" font-size="14" lengthAdjust="spacing" textLength="53" x="423.3028" y="350.1167">Texture</text><line style="stroke:#181818;stroke-width:0.5;" x1="395.3028" x2="478.3028" y1="361.27" y2="361.27"/><line style="stroke:#181818;stroke-width:0.5;" x1="395.3028" x2="478.3028" y1="369.27" y2="369.27"/></g><!--class Tile--><g id="elem_Tile"><rect codeLine="10" fill="#F1F1F1" height="48" id="Tile" rx="2.5" ry="2.5" style="stroke:#181818;stroke-width:0.5;" width="56" x="302.8028" y="329.27"/><ellipse cx="317.8028" cy="345.27" fill="#ADD1B2" rx="11" ry="11" style="stroke:#181818;stroke-width:1.0;"/><path d="M320.7715,350.9106 Q320.1934,351.2075 319.5528,351.3481 Q318.9122,351.5044 318.209,351.5044 Q315.709,351.5044 314.3809,349.8638 Q313.0684,348.2075 313.0684,345.0825 Q313.0684,341.9575 314.3809,340.3013 Q315.709,338.645 318.209,338.645 Q318.9122,338.645 319.5528,338.8013 Q320.209,338.9575 320.7715,339.2544 L320.7715,341.9731 Q320.1465,341.395 319.5528,341.1294 Q318.959,340.8481 318.334,340.8481 Q316.9903,340.8481 316.3028,341.9263 Q315.6153,342.9888 315.6153,345.0825 Q315.6153,347.1763 316.3028,348.2544 Q316.9903,349.3169 318.334,349.3169 Q318.959,349.3169 319.5528,349.0513 Q320.1465,348.77 320.7715,348.1919 L320.7715,350.9106 Z " fill="#000000"/><text fill="#000000" font-family="sans-serif" font-size="14" lengthAdjust="spacing" textLength="24" x="331.8028" y="350.1167">Tile</text><line style="stroke:#181818;stroke-width:0.5;" x1="303.8028" x2="357.8028" y1="361.27" y2="361.27"/><line style="stroke:#181818;stroke-width:0.5;" x1="303.8028" x2="357.8028" y1="369.27" y2="369.27"/></g><!--class TileInfo--><g id="elem_TileInfo"><rect codeLine="11" fill="#F1F1F1" height="113.1875" id="TileInfo" rx="2.5" ry="2.5" style="stroke:#181818;stroke-width:0.5;" width="90" x="302.8028" y="453.56"/><ellipse cx="321.8528" cy="469.56" fill="#F1F1F1" rx="11" ry="11" style="stroke:#181818;stroke-width:1.0;"/><path d="M321.3372,470.1225 Q319.4778,469.4194 318.8215,468.6538 Q318.1809,467.8725 318.1809,466.56 Q318.1809,464.8725 319.259,463.9038 Q320.3372,462.935 322.2122,462.935 Q323.0715,462.935 323.9153,463.1381 Q324.7747,463.3256 325.6184,463.7163 L325.6184,466.1069 Q324.8372,465.5444 324.009,465.2631 Q323.1965,464.9663 322.3997,464.9663 Q321.5247,464.9663 321.0403,465.3256 Q320.5715,465.685 320.5715,466.3413 Q320.5715,466.8569 320.9153,467.2006 Q321.259,467.5288 322.3528,467.935 L323.4153,468.3413 Q324.8997,468.8881 325.6028,469.7944 Q326.3215,470.7006 326.3215,472.0756 Q326.3215,473.9506 325.2122,474.8725 Q324.1028,475.7944 321.8528,475.7944 Q320.9309,475.7944 320.009,475.5756 Q319.0872,475.3569 318.2278,474.935 L318.2278,472.4038 Q319.1965,473.0913 320.1184,473.435 Q321.0403,473.7788 321.9309,473.7788 Q322.8372,473.7788 323.3372,473.3725 Q323.8372,472.9506 323.8372,472.2163 Q323.8372,471.6538 323.4934,471.2475 Q323.1653,470.8256 322.5403,470.5756 L321.3372,470.1225 Z " fill="#000000"/><text fill="#000000" font-family="sans-serif" font-size="14" lengthAdjust="spacing" textLength="49" x="336.7528" y="474.4067">TileInfo</text><line style="stroke:#181818;stroke-width:0.5;" x1="303.8028" x2="391.8028" y1="485.56" y2="485.56"/><ellipse cx="313.8028" cy="499.2084" fill="none" rx="3" ry="3" style="stroke:#038048;stroke-width:1.0;"/><text fill="#000000" font-family="sans-serif" font-size="14" lengthAdjust="spacing" textLength="64" x="322.8028" y="502.5551">tileSize.w</text><ellipse cx="313.8028" cy="515.5053" fill="none" rx="3" ry="3" style="stroke:#038048;stroke-width:1.0;"/><text fill="#000000" font-family="sans-serif" font-size="14" lengthAdjust="spacing" textLength="62" x="322.8028" y="518.852">tileSize.h</text><ellipse cx="313.8028" cy="531.8022" fill="none" rx="3" ry="3" style="stroke:#038048;stroke-width:1.0;"/><text fill="#000000" font-family="sans-serif" font-size="14" lengthAdjust="spacing" textLength="50" x="322.8028" y="535.1489">offset.x</text><ellipse cx="313.8028" cy="548.0991" fill="none" rx="3" ry="3" style="stroke:#038048;stroke-width:1.0;"/><text fill="#000000" font-family="sans-serif" font-size="14" lengthAdjust="spacing" textLength="50" x="322.8028" y="551.4457">offset.y</text><line style="stroke:#181818;stroke-width:0.5;" x1="303.8028" x2="391.8028" y1="558.7475" y2="558.7475"/></g><!--class Game--><g id="elem_Game"><rect codeLine="47" fill="#F1F1F1" height="48" id="Game" rx="2.5" ry="2.5" style="stroke:#181818;stroke-width:0.5;" width="73" x="844.3028" y="329.27"/><ellipse cx="859.3028" cy="345.27" fill="#ADD1B2" rx="11" ry="11" style="stroke:#181818;stroke-width:1.0;"/><path d="M862.2715,350.9106 Q861.6934,351.2075 861.0528,351.3481 Q860.4122,351.5044 859.709,351.5044 Q857.209,351.5044 855.8809,349.8638 Q854.5684,348.2075 854.5684,345.0825 Q854.5684,341.9575 855.8809,340.3013 Q857.209,338.645 859.709,338.645 Q860.4122,338.645 861.0528,338.8013 Q861.709,338.9575 862.2715,339.2544 L862.2715,341.9731 Q861.6465,341.395 861.0528,341.1294 Q860.459,340.8481 859.834,340.8481 Q858.4903,340.8481 857.8028,341.9263 Q857.1153,342.9888 857.1153,345.0825 Q857.1153,347.1763 857.8028,348.2544 Q858.4903,349.3169 859.834,349.3169 Q860.459,349.3169 861.0528,349.0513 Q861.6465,348.77 862.2715,348.1919 L862.2715,350.9106 Z " fill="#000000"/><text fill="#000000" font-family="sans-serif" font-size="14" lengthAdjust="spacing" textLength="41" x="873.3028" y="350.1167">Game</text><line style="stroke:#181818;stroke-width:0.5;" x1="845.3028" x2="916.3028" y1="361.27" y2="361.27"/><line style="stroke:#181818;stroke-width:0.5;" x1="845.3028" x2="916.3028" y1="369.27" y2="369.27"/></g><g id="elem_GMN23"><path d="M952.8028,340.7 L952.8028,349.27 L917.7028,353.27 L952.8028,357.27 L952.8028,365.8328 A0,0 0 0 0 952.8028,365.8328 L1090.8028,365.8328 A0,0 0 0 0 1090.8028,365.8328 L1090.8028,350.7 L1080.8028,340.7 L952.8028,340.7 A0,0 0 0 0 952.8028,340.7 " fill="#FEFFDD" style="stroke:#181818;stroke-width:0.5;"/><path d="M1080.8028,340.7 L1080.8028,350.7 L1090.8028,350.7 L1080.8028,340.7 " fill="#FEFFDD" style="stroke:#181818;stroke-width:0.5;"/><text fill="#000000" font-family="sans-serif" font-size="13" lengthAdjust="spacing" textLength="117" x="958.8028" y="357.7669">Aqu&#237; va el juego ...</text></g><!--reverse link Sound to Sound--><g id="link_Sound_Sound"><path d="M203.5463,187.9876 C215.9763,212.5276 230.8728,234.03 262.8028,252.97 C353.1528,306.57 404.8328,235.51 496.8028,286.27 C514.6928,296.14 529.3828,314.15 539.2228,328.86 " fill="none" id="Sound-backto-Sound" style="stroke:#181818;stroke-width:1.0;"/><polygon fill="none" points="195.4128,171.93,198.1938,190.6988,208.8988,185.2764,195.4128,171.93" style="stroke:#181818;stroke-width:1.0;"/></g><!--reverse link Texture to Texture--><g id="link_Texture_Texture"><path d="M81.2038,188.9132 C89.4738,213.3932 100.3228,233.84 128.8028,252.97 C221.1228,314.98 278.3228,234.59 376.8028,286.27 C395.4528,296.05 411.2228,314.07 421.9028,328.81 " fill="none" id="Texture-backto-Texture" style="stroke:#181818;stroke-width:1.0;"/><polygon fill="none" points="75.4428,171.86,75.5194,190.8335,86.8882,186.9928,75.4428,171.86" style="stroke:#181818;stroke-width:1.0;"/></g><!--reverse link Tile to TileInfo--><g id="link_Tile_TileInfo"><path codeLine="18" d="M334.6583,389.3788 C336.8483,409.3888 338.8028,427.16 341.6728,453.3 " fill="none" id="Tile-backto-TileInfo" style="stroke:#181818;stroke-width:1.0;"/><polygon fill="#181818" points="333.3528,377.45,330.0293,383.8496,334.6583,389.3788,337.9818,382.9792,333.3528,377.45" style="stroke:#181818;stroke-width:1.0;"/></g><!--reverse link Tile to Texture--><g id="link_Tile_Texture"><path codeLine="19" d="M291.1271,340.687 C248.9971,327.547 180.5428,301.48 128.8028,252.97 C104.3828,230.08 87.0528,194.99 77.4828,171.89 " fill="none" id="Tile-backto-Texture" style="stroke:#181818;stroke-width:1.0;"/><polygon fill="#181818" points="302.5828,344.26,298.0459,338.6549,291.1271,340.687,295.6639,346.2921,302.5828,344.26" style="stroke:#181818;stroke-width:1.0;"/></g><!--reverse link Engine to Sound--><g id="link_Engine_Sound"><path codeLine="41" d="M561.7647,265.297 C558.8347,293.777 557.1628,310 555.2028,328.95 " fill="none" id="Engine-backto-Sound" style="stroke:#181818;stroke-width:1.0;"/><polygon fill="none" points="562.9928,253.36,558.3998,258.9191,561.7647,265.297,566.3578,259.7379,562.9928,253.36" style="stroke:#181818;stroke-width:1.0;"/></g><!--reverse link Engine to Texture--><g id="link_Engine_Texture"><path codeLine="42" d="M496.5993,263.3198 C477.4593,291.7998 465.2128,310 452.4828,328.95 " fill="none" id="Engine-backto-Texture" style="stroke:#181818;stroke-width:1.0;"/><polygon fill="none" points="503.2928,253.36,496.6261,256.1087,496.5993,263.3198,503.266,260.5711,503.2928,253.36" style="stroke:#181818;stroke-width:1.0;"/></g><!--reverse link Engine to Result--><g id="link_Engine_Result"><path codeLine="43" d="M648.8096,263.4103 C662.6796,284.6703 669.8928,295.71 681.1228,312.91 " fill="none" id="Engine-backto-Result" style="stroke:#181818;stroke-width:1.0;"/><polygon fill="none" points="642.2528,253.36,642.1811,260.5707,648.8096,263.4103,648.8813,256.1995,642.2528,253.36" style="stroke:#181818;stroke-width:1.0;"/></g><!--reverse link Engine to Game--><g id="link_Engine_Game"><path d="M770.6348,263.1844 C787.1948,273.9244 788.4128,275.18 803.8028,286.27 C821.9428,299.33 841.0428,315.68 855.6728,328.83 " fill="none" id="Engine-backto-Game" style="stroke:#181818;stroke-width:1.0;"/><polygon fill="none" points="755.5328,253.39,767.37,268.2184,773.8996,258.1504,755.5328,253.39" style="stroke:#181818;stroke-width:1.0;"/></g><!--SRC=[VPF9JiD038RlUGfBNChIS4S82I5QLK88jN3WX8R4JKCdCs7YOHMFn5FmOdYs4CfooV9v-JssfnN5MbG8HZpB-XOE3q-ajkNH4MnD3QAwHYdru_vPNQregcM9QgxB0E4r0-Z8s89WeQqguVNjYrpY4rc3ZhrbMHjLK5MrGbQPOq52LH9PoUL93gBha3gF00h9lp4tfqDLTh7EV22O_9BYXkUWa85lBNkI2cOqKqiTjG5sWHWjwXVC7t-YLO_qSiarvq-RuDa3FhnxUS6TyRYN-Kw_rvg5i2mMUngQvkiQGsjqWLqtKwsbqNPWjYq5uMWfjI0eKPAWki5eDDmDDC5r2-ROMKcWrKpLbE23haj65odr3ylLtmAzptoWini7UN0G1jM8DVglYT7DXQ3LgEN77jVcgja8IHDpGV7xlx1u8cELqtQDGsMRX7tNrWlh3dOJc2SJRlsvfeahgkSkE7PRyrH2GM7NVZFqungOOgh1pbUY-MtZmsodpfWsDjoEFCtRtHobYU-cktsyLjxRByxnlVruXmS1AE7EOgKXptEsS1fm8Py0]--></g></svg>